<svg xmlns="http://www.w3.org/2000/svg" width="280" height="80" viewBox="0 0 280 80">
  <!-- 蓝色图标 - 与文字对齐 -->
  <g transform="translate(4, 16) scale(0.06, 0.06)">
    <path fill="#0EA5E9" stroke="#0EA5E9" stroke-width="1" opacity="1" d="M 435.5 337 L 438 337.5 L 540 493.5 L 594.5 572 L 611 556.5 L 615 551.5 L 468 338.5 L 487.5 338 L 626.5 539 L 649 515.5 L 527 338.5 L 546.5 338 L 660.5 503 L 683 479.5 L 586 338.5 L 605.5 338 L 694.5 467 L 717 443.5 L 644 338.5 L 664.5 338 L 728.5 431 L 748 410.5 L 750 406.5 L 703 338.5 L 722.5 338 L 762.5 395 L 785 370.5 L 752 340.5 L 851.5 340 L 852 351.5 L 851 352.5 L 851 392.5 L 850 393.5 L 849.5 428 L 822.5 403 L 588.5 686 L 476 514.5 L 426.5 443 L 424 444.5 L 406 469.5 L 555 685.5 L 535.5 686 L 395.5 484 L 393 485.5 L 375 509.5 L 496 685.5 L 476.5 686 L 364.5 524 L 344 550.5 L 437 685.5 L 417.5 686 L 333.5 565 L 315 588.5 L 314 592.5 L 378 685.5 L 358.5 686 L 302.5 605 L 283 630.5 L 283 632.5 L 320 685.5 L 299.5 686 L 271.5 646 L 241.5 686 L 154 685.5 L 435.5 337 Z " />
  </g>
  
  <!-- MarketNews 文字 -->
  <text x="160" y="58" 
        font-family="system-ui, -apple-system, sans-serif" 
        font-size="32" 
        font-weight="700" 
        text-anchor="middle" 
        fill="#0EA5E9">MarketNews</text>
</svg>